<svg width="23" height="23" viewBox="0 0 23 23" fill="none" xmlns="http://www.w3.org/2000/svg">
<g id="Group">
<path id="Vector" d="M22.5372 5.42275H0.462785C0.20718 5.42275 0 5.21557 0 4.96001V4.38959C0 4.13398 0.20718 3.9268 0.462785 3.9268H22.5372C22.7928 3.9268 23 4.13398 23 4.38959V4.95996C23 5.21557 22.7928 5.42275 22.5372 5.42275Z" fill="#4A80AA"/>
<path id="Vector_2" d="M22.5373 5.42274H21.7847V3.92684H22.5373C22.7929 3.92684 23.0001 4.13402 23.0001 4.38963V4.96C23.0001 5.21556 22.7929 5.42274 22.5373 5.42274V5.42274Z" fill="#407093"/>
<path id="Vector_3" d="M22.5372 23H0.462785C0.20718 23 0 22.7928 0 22.5372V21.9668C0 21.7112 0.20718 21.5041 0.462785 21.5041H22.5372C22.7928 21.5041 23 21.7112 23 21.9668V22.5372C23 22.7928 22.7928 23 22.5372 23Z" fill="#4A80AA"/>
<path id="Vector_4" d="M12.1355 21.5041C12.5827 22.0856 13.1231 22.5918 13.7343 23H22.5372C22.7929 23 23 22.7928 23 22.5372V21.9668C23 21.7112 22.7929 21.5041 22.5372 21.5041H12.1355Z" fill="#407093"/>
<path id="Vector_5" d="M0.748047 5.42274H22.2521V21.5041H0.748047V5.42274Z" fill="#F4FBFF"/>
<path id="Vector_6" d="M21.0367 5.42274V11.3253C21.0367 11.5417 20.7957 11.6682 20.6157 11.5482C19.7814 10.9918 18.8817 10.7733 17.6301 10.7535C13.882 10.6943 10.7511 13.6903 10.7522 17.4389C10.7526 18.9672 11.2689 20.377 12.1356 21.504H22.2522V5.42274H21.0367Z" fill="#E4F6FF"/>
<path id="Vector_7" d="M2.2439 21.5041V9.25139C2.2439 8.99578 2.45108 8.7886 2.70668 8.7886H9.9153C10.1709 8.7886 10.3781 8.99578 10.3781 9.25139V21.5041H2.2439Z" fill="#9D6B6B"/>
<path id="Vector_8" d="M9.1626 21.5041V8.7886H9.91526C10.1709 8.7886 10.378 8.99578 10.378 9.25139V21.5041H9.1626Z" fill="#8B5E5E"/>
<path id="Vector_9" d="M3.73975 13.8411V10.6547C3.73975 10.4503 3.90551 10.2845 4.10995 10.2845H8.5118C8.71628 10.2845 8.882 10.4503 8.882 10.6547V13.8411C8.882 14.0456 8.71624 14.2113 8.5118 14.2113H4.10995C3.90551 14.2114 3.73975 14.0456 3.73975 13.8411V13.8411Z" fill="#BED8FB"/>
<path id="Vector_10" d="M4.5813 19.6379V18.8824C4.5813 18.6779 4.74706 18.5122 4.9515 18.5122H7.6704C7.87488 18.5122 8.0406 18.678 8.0406 18.8824V19.6379C8.0406 19.8424 7.87484 20.0081 7.6704 20.0081H4.9515C4.74706 20.0081 4.5813 19.8424 4.5813 19.6379Z" fill="#4A80AA"/>
<path id="Vector_11" d="M20.7562 17.4837V9.25139C20.7562 8.99578 20.549 8.7886 20.2934 8.7886H12.3368C12.0812 8.7886 11.874 8.99578 11.874 9.25139V17.4837H20.7562Z" fill="#BED8FB"/>
<path id="Vector_12" d="M20.7561 11.6358C19.7776 11.0737 18.6442 10.752 17.437 10.752C15.1194 10.752 13.0737 11.9378 11.874 13.7342V17.4837H20.7562V11.6358H20.7561Z" fill="#9DC6FB"/>
<g id="Group_2">
<path id="Vector_13" d="M4.30075 3.92685H1.77637L2.19526 0.40807C2.22298 0.175285 2.42037 0 2.65477 0H4.30071V3.92685H4.30075Z" fill="#B3E59F"/>
<path id="Vector_14" d="M4.30078 0H6.35771V3.92685H4.30078V0Z" fill="#FFE07D"/>
<path id="Vector_15" d="M6.35767 0H8.41459V3.92685H6.35767V0Z" fill="#B3E59F"/>
<path id="Vector_16" d="M8.41455 0H10.4715V3.92685H8.41455V0Z" fill="#FFE07D"/>
<path id="Vector_17" d="M10.4717 0H12.5286V3.92685H10.4717V0Z" fill="#B3E59F"/>
<path id="Vector_18" d="M12.5283 0H14.5852V3.92685H12.5283V0Z" fill="#FFE07D"/>
<path id="Vector_19" d="M14.5854 0H16.6424V3.92685H14.5854V0Z" fill="#B3E59F"/>
<path id="Vector_20" d="M16.6423 0H18.6993V3.92685H16.6423V0Z" fill="#FFE07D"/>
<path id="Vector_21" d="M21.2236 3.92685H18.6992V0H20.3452C20.5796 0 20.777 0.175285 20.8047 0.40807L21.2236 3.92685Z" fill="#B3E59F"/>
</g>
<g id="Group_3">
<path id="Vector_22" d="M17.437 23C20.5094 23 23 20.5094 23 17.437C23 14.3647 20.5094 11.874 17.437 11.874C14.3647 11.874 11.874 14.3647 11.874 17.437C11.874 20.5094 14.3647 23 17.437 23Z" fill="#FFE07D"/>
<path id="Vector_23" d="M15.5203 21.6911C14.8542 21.6911 14.2074 21.6087 13.5891 21.4543C14.5883 22.4117 15.9439 23 17.437 23C20.5094 23 23 20.5094 23 17.437C23 17.1531 22.9786 16.8743 22.9376 16.6018C21.7898 19.5787 18.9019 21.6911 15.5203 21.6911Z" fill="#FFD064"/>
<g id="Group_4">
<g id="Group_5">
<path id="Vector_24" d="M17.4369 21.4304C17.2452 21.4304 17.0898 21.275 17.0898 21.0834V19.4939C17.0898 19.3022 17.2452 19.1469 17.4369 19.1469C17.6286 19.1469 17.784 19.3022 17.784 19.4939V21.0834C17.784 21.275 17.6286 21.4304 17.4369 21.4304Z" fill="#5AA687"/>
</g>
</g>
<g id="Group_6">
<path id="Vector_25" d="M17.7595 14.276C17.617 14.025 17.2567 14.025 17.1143 14.276C16.8586 14.7266 16.5442 15.4585 16.5442 16.3322C16.5442 16.5675 16.5672 16.7954 16.6055 17.0127C16.5169 16.897 16.4198 16.7839 16.3122 16.6763C15.7581 16.1222 15.0895 15.8593 14.6275 15.7363C14.3536 15.6633 14.1024 15.9145 14.1753 16.1884C14.2984 16.6504 14.5613 17.319 15.1154 17.8731C15.2964 18.0541 15.4926 18.2069 15.6916 18.3357C15.6269 18.3309 15.5613 18.3283 15.4948 18.3283C14.9518 18.3283 14.484 18.4999 14.1544 18.6693C13.888 18.8064 13.888 19.1892 14.1544 19.3262C14.484 19.4956 14.9518 19.6672 15.4948 19.6672C15.6216 19.6672 15.7454 19.6576 15.8654 19.6411C15.7569 19.8537 15.7174 20.0888 15.707 20.2842C15.6941 20.5257 15.9106 20.7169 16.1477 20.6691C16.3958 20.619 16.708 20.5077 16.9534 20.2624C17.2103 20.0055 17.3625 19.6583 17.4369 19.4441C17.5113 19.6583 17.6635 20.0055 17.9204 20.2624C18.1658 20.5077 18.478 20.619 18.7261 20.6691C18.9632 20.717 19.1797 20.5257 19.1668 20.2842C19.1564 20.0888 19.1169 19.8537 19.0084 19.6411C19.1284 19.6576 19.2522 19.6672 19.379 19.6672C19.922 19.6672 20.3898 19.4956 20.7194 19.3262C20.9858 19.1892 20.9858 18.8064 20.7194 18.6693C20.3898 18.4999 19.922 18.3283 19.379 18.3283C19.3125 18.3283 19.2469 18.3309 19.1822 18.3357C19.3812 18.2069 19.5774 18.0541 19.7584 17.8731C20.3125 17.319 20.5755 16.6504 20.6985 16.1884C20.7714 15.9145 20.5202 15.6633 20.2463 15.7363C19.7843 15.8593 19.1157 16.1222 18.5616 16.6763C18.454 16.7839 18.3569 16.897 18.2683 17.0127C18.3066 16.7954 18.3296 16.5675 18.3296 16.3322C18.3295 15.4585 18.0151 14.7266 17.7595 14.276Z" fill="#B3E59F"/>
</g>
</g>
<g id="Group_7">
<path id="Vector_26" d="M8.53496 16.0544H7.6C7.40827 16.0544 7.25293 15.899 7.25293 15.7073C7.25293 15.5157 7.40832 15.3603 7.6 15.3603H8.53496C8.72668 15.3603 8.88202 15.5157 8.88202 15.7073C8.88207 15.899 8.72668 16.0544 8.53496 16.0544Z" fill="#FFE07D"/>
</g>
</g>
</svg>
